# xmcd
#
# Track frame offsets:
#	150
#	9537
#	16792
#	29517
#	41464
#	54360
#	63812
#	75742
#	88402
#	100490
#
# Disc length: 1459
#
# Revision: 1
# Processed by: cddbd v1.5.1PL0 Copyright (c) Steve Scherf et al.
# Submitted via: dBpowerAMP V4.0
# Normalized: r0:TDELIM( - )
#
DISCID=7305b10a
DTITLE=Various Artist - Real 60's R&B Dsic 1
DYEAR=1900
DGENRE=R&B
TTITLE0=Bobby Marchan - There's Something On Your Mind Pt 1
TTITLE1=Maurice Willimams and The Zodiacs - Stay
TTITLE2=Gladys Knight - Letter Full Of Tears
TTITLE3=Mickey and Sylvia - This Is My Story
TTITLE4=Don Gardner and Dee Dee Ford - I Need Your Loving
TTITLE5=Patty and Emblems - Mixed Up Shook Up Girl
TTITLE6=Jackie and The Starlites - I Found Out Too Late
TTITLE7=Elmore James - The Sky Is Crying
TTITLE8=Ketty Lester - Love Letters
TTITLE9=Vito and The Salutations - Unchained Melody
EXTD=
EXTT0=
EXTT1=
EXTT2=
EXTT3=
EXTT4=
EXTT5=
EXTT6=
EXTT7=
EXTT8=
EXTT9=
PLAYORDER=
